<svg width="17" height="17" viewBox="0 0 17 17" fill="none" xmlns="http://www.w3.org/2000/svg">
<path d="M10.4478 12.9979C10.6603 12.2896 11.0853 11.6521 11.652 11.1562C12.7145 10.2708 13.3874 8.925 13.3874 7.4375C13.3874 4.675 11.0854 2.40832 8.25202 2.55C5.73742 2.65625 3.68324 4.78125 3.61242 7.29582C3.57699 8.85418 4.24992 10.2354 5.34784 11.1562C5.94992 11.6521 6.37492 12.2896 6.58742 12.9979H10.4478Z" fill="#FFD15C"/>
<path d="M8.03967 13.0687H8.35842L6.94175 7.79165C6.97717 7.79165 7.01257 7.79165 7.048 7.79165C7.22507 7.79165 7.40217 7.72083 7.54382 7.57915C7.61464 7.50833 7.68549 7.4729 7.79174 7.4729C7.89799 7.4729 7.96881 7.50833 8.03967 7.57915C8.2876 7.86247 8.71259 7.86247 8.96049 7.57915C9.03131 7.50833 9.10217 7.4729 9.20842 7.4729C9.27924 7.4729 9.38549 7.50833 9.45634 7.57915C9.59802 7.72083 9.73966 7.79165 9.95216 7.79165C9.98759 7.79165 10.023 7.79165 10.0584 7.79165L8.67717 13.0687H8.99592L10.448 7.54372C10.448 7.4729 10.448 7.40204 10.3772 7.36665C10.3063 7.33122 10.2355 7.36665 10.2001 7.40208C10.1293 7.4729 10.0584 7.50833 9.98759 7.50833C9.88134 7.50833 9.81052 7.4729 9.70427 7.40208C9.56259 7.2604 9.42095 7.18958 9.24384 7.18958C9.06674 7.18958 8.92509 7.2604 8.78342 7.40208C8.64174 7.54375 8.42924 7.54375 8.2876 7.40208C8.18135 7.2604 8.00427 7.18958 7.82717 7.18958C7.6501 7.18958 7.47299 7.2604 7.36674 7.40208C7.29592 7.4729 7.18967 7.50833 7.08342 7.50833C7.0126 7.50833 6.90635 7.4729 6.87092 7.40208C6.8355 7.36665 6.76467 7.33125 6.69385 7.36665C6.62303 7.40208 6.5876 7.4729 6.62303 7.54372L8.03967 13.0687Z" fill="white"/>
<path d="M7.4021 16.2563C7.57921 16.6813 8.00421 17 8.50003 17C8.99586 17 9.42086 16.6813 9.59797 16.2563H7.4021Z" fill="#344A5E"/>
<path d="M9.81045 16.2917H7.22502C6.87085 16.2917 6.58752 16.0084 6.58752 15.6542V12.9625H10.448V15.6542C10.448 16.0083 10.1646 16.2917 9.81045 16.2917Z" fill="#344A5E"/>
<path d="M10.4126 14.3083H6.58757C6.37507 14.3083 6.198 14.1312 6.198 13.9187C6.198 13.7062 6.37507 13.5292 6.58757 13.5292H10.4126C10.6251 13.5292 10.8021 13.7062 10.8021 13.9187C10.8021 14.1312 10.6251 14.3083 10.4126 14.3083Z" fill="#415A6B"/>
<path d="M10.4126 15.5479H6.58757C6.37507 15.5479 6.198 15.3709 6.198 15.1584C6.198 14.9459 6.37507 14.7688 6.58757 14.7688H10.4126C10.6251 14.7688 10.8021 14.9459 10.8021 15.1584C10.8021 15.3708 10.6251 15.5479 10.4126 15.5479Z" fill="#415A6B"/>
<path d="M8.50006 0C8.32298 0 8.14587 0.141678 8.14587 0.354178V1.55836C8.14587 1.73543 8.28755 1.91253 8.50006 1.91253C8.71256 1.91253 8.85424 1.77086 8.85424 1.55836V0.354178C8.85424 0.141678 8.67714 0 8.50006 0Z" fill="#FFD15C"/>
<path d="M3.75417 2.1604C3.61249 2.01872 3.39999 2.01872 3.25835 2.1604C3.1167 2.30207 3.11667 2.51457 3.25835 2.65622L4.10835 3.50622C4.25002 3.64789 4.46252 3.64789 4.60417 3.50622C4.74581 3.36454 4.74585 3.15204 4.60417 3.01039L3.75417 2.1604Z" fill="#FFD15C"/>
<path d="M2.65626 7.04791H1.45208C1.27501 7.04791 1.0979 7.18959 1.0979 7.40209C1.0979 7.57916 1.23958 7.75627 1.45208 7.75627H2.65626C2.83333 7.75627 3.01043 7.61459 3.01043 7.40209C3.01043 7.22499 2.83333 7.04791 2.65626 7.04791Z" fill="#FFD15C"/>
<path d="M4.10836 11.2979L3.25836 12.1479C3.11668 12.2896 3.11668 12.5021 3.25836 12.6437C3.40004 12.7854 3.61253 12.7854 3.75418 12.6437L4.60418 11.7937C4.74585 11.652 4.74585 11.4395 4.60418 11.2979C4.4625 11.1563 4.25003 11.1562 4.10836 11.2979Z" fill="#FFD15C"/>
<path d="M12.8917 11.2979C12.75 11.1562 12.5375 11.1562 12.3958 11.2979C12.2541 11.4396 12.2541 11.6521 12.3958 11.7937L13.2458 12.6437C13.3875 12.7854 13.6 12.7854 13.7416 12.6437C13.8833 12.502 13.8833 12.2895 13.7416 12.1479L12.8917 11.2979Z" fill="#FFD15C"/>
<path d="M15.548 7.04791H14.3438C14.1667 7.04791 13.9896 7.18959 13.9896 7.40209C13.9896 7.57916 14.1313 7.75627 14.3438 7.75627H15.548C15.7251 7.75627 15.9022 7.61459 15.9022 7.40209C15.9021 7.22499 15.7605 7.04791 15.548 7.04791Z" fill="#FFD15C"/>
<path d="M13.2458 2.16045L12.3958 3.01044C12.2541 3.15212 12.2541 3.36462 12.3958 3.50627C12.5375 3.64794 12.75 3.64794 12.8916 3.50627L13.7416 2.65627C13.8833 2.51459 13.8833 2.30209 13.7416 2.16045C13.5999 2.0188 13.3875 2.01877 13.2458 2.16045Z" fill="#FFD15C"/>
</svg>
