<svg width="17" height="17" viewBox="0 0 17 17" fill="none" xmlns="http://www.w3.org/2000/svg">
<g clip-path="url(#clip0)">
<path d="M10.4476 12.9979C10.6601 12.2896 11.0851 11.6521 11.6518 11.1563C12.7143 10.2708 13.3872 8.925 13.3872 7.4375C13.3872 4.675 11.0852 2.40832 8.2518 2.55C5.73719 2.65625 3.68301 4.78125 3.61219 7.29582C3.57676 8.85418 4.24969 10.2354 5.34762 11.1563C5.94969 11.6521 6.37469 12.2896 6.58719 12.9979H10.4476Z" fill="#D0D5F4"/>
<path d="M8.03806 13.0687H8.35681L6.94013 7.79159H7.04638C7.22346 7.79159 7.40056 7.72076 7.54221 7.57909C7.61303 7.50826 7.68388 7.47284 7.79013 7.47284C7.89638 7.47284 7.96721 7.50826 8.03806 7.57909C8.28599 7.86241 8.71099 7.86241 8.95888 7.57909C9.02971 7.50826 9.10056 7.47284 9.20681 7.47284C9.27763 7.47284 9.38388 7.50826 9.45474 7.57909C9.59642 7.72076 9.73806 7.79159 9.95056 7.79159H10.0568L8.67556 13.0687H8.99431L10.4464 7.54366C10.4464 7.47284 10.4464 7.40198 10.3756 7.36659C10.3047 7.33116 10.2339 7.36659 10.1985 7.40201C10.1277 7.47284 10.0568 7.50826 9.98599 7.50826C9.87974 7.50826 9.80892 7.47284 9.70267 7.40201C9.56099 7.26034 9.41934 7.18951 9.24224 7.18951C9.06513 7.18951 8.92349 7.26034 8.78181 7.40201C8.64013 7.54369 8.42763 7.54369 8.28599 7.40201C8.17974 7.26034 8.00267 7.18951 7.82556 7.18951C7.64849 7.18951 7.47138 7.26034 7.36513 7.40201C7.29431 7.47284 7.18806 7.50826 7.08181 7.50826C7.01099 7.50826 6.90474 7.47284 6.86931 7.40201C6.83388 7.36659 6.76306 7.33119 6.69224 7.36659C6.62142 7.40201 6.58599 7.47284 6.62142 7.54366L8.03806 13.0687Z" fill="white"/>
<path d="M7.40026 16.2565C7.57737 16.6815 8.00237 17.0003 8.49819 17.0003C8.99401 17.0003 9.41901 16.6815 9.59611 16.2565H7.40026Z" fill="#344A5E"/>
<path d="M9.80965 16.2919H7.22422C6.87004 16.2919 6.58672 16.0086 6.58672 15.6544V12.9627H10.4471V15.6544C10.4471 16.0085 10.1638 16.2919 9.80965 16.2919Z" fill="#344A5E"/>
<path d="M10.4112 14.3084H6.58619C6.37369 14.3084 6.19662 14.1313 6.19662 13.9188C6.19662 13.7063 6.37369 13.5292 6.58619 13.5292H10.4112C10.6237 13.5292 10.8008 13.7063 10.8008 13.9188C10.8008 14.1313 10.6237 14.3084 10.4112 14.3084Z" fill="#415A6B"/>
<path d="M10.4112 15.5478H6.58619C6.37369 15.5478 6.19662 15.3707 6.19662 15.1582C6.19662 14.9457 6.37369 14.7687 6.58619 14.7687H10.4112C10.6237 14.7687 10.8008 14.9457 10.8008 15.1582C10.8008 15.3707 10.6237 15.5478 10.4112 15.5478Z" fill="#415A6B"/>
</g>
<defs>
<clipPath id="clip0">
<rect width="17" height="17" fill="white"/>
</clipPath>
</defs>
</svg>
