<?xml version="1.0" encoding="UTF-8" standalone="no"?>
<svg
   xmlns:dc="http://purl.org/dc/elements/1.1/"
   xmlns:cc="http://creativecommons.org/ns#"
   xmlns:rdf="http://www.w3.org/1999/02/22-rdf-syntax-ns#"
   xmlns:svg="http://www.w3.org/2000/svg"
   xmlns="http://www.w3.org/2000/svg"
   xmlns:sodipodi="http://sodipodi.sourceforge.net/DTD/sodipodi-0.dtd"
   xmlns:inkscape="http://www.inkscape.org/namespaces/inkscape"
   inkscape:version="1.0 (4035a4f, 2020-05-01)"
   sodipodi:docname="search-dark.svg"
   id="svg835"
   version="1.1"
   fill="none"
   viewBox="0 0 19 19"
   height="19"
   width="19">
  <metadata
     id="metadata841">
    <rdf:RDF>
      <cc:Work
         rdf:about="">
        <dc:format>image/svg+xml</dc:format>
        <dc:type
           rdf:resource="http://purl.org/dc/dcmitype/StillImage" />
      </cc:Work>
    </rdf:RDF>
  </metadata>
  <defs
     id="defs839" />
  <sodipodi:namedview
     inkscape:current-layer="svg835"
     inkscape:window-maximized="0"
     inkscape:window-y="23"
     inkscape:window-x="0"
     inkscape:cy="9.5"
     inkscape:cx="9.5"
     inkscape:zoom="37.473684"
     showgrid="false"
     id="namedview837"
     inkscape:window-height="939"
     inkscape:window-width="1680"
     inkscape:pageshadow="2"
     inkscape:pageopacity="0"
     guidetolerance="10"
     gridtolerance="10"
     objecttolerance="10"
     borderopacity="1"
     bordercolor="#666666"
     pagecolor="#ffffff" />
  <path
     style="fill:#9d9d9d;fill-opacity:1"
     id="path833"
     fill="white"
     d="M17.71 16.29L14.31 12.9C15.407 11.5025 16.0022 9.77666 16 8C16 6.41775 15.5308 4.87103 14.6518 3.55544C13.7727 2.23985 12.5233 1.21447 11.0615 0.608967C9.59966 0.00346625 7.99113 -0.15496 6.43928 0.153721C4.88743 0.462403 3.46197 1.22433 2.34315 2.34315C1.22433 3.46197 0.462403 4.88743 0.153721 6.43928C-0.15496 7.99113 0.00346625 9.59966 0.608967 11.0615C1.21447 12.5233 2.23985 13.7727 3.55544 14.6518C4.87103 15.5308 6.41775 16 8 16C9.77666 16.0022 11.5025 15.407 12.9 14.31L16.29 17.71C16.383 17.8037 16.4936 17.8781 16.6154 17.9289C16.7373 17.9797 16.868 18.0058 17 18.0058C17.132 18.0058 17.2627 17.9797 17.3846 17.9289C17.5064 17.8781 17.617 17.8037 17.71 17.71C17.8037 17.617 17.8781 17.5064 17.9289 17.3846C17.9797 17.2627 18.0058 17.132 18.0058 17C18.0058 16.868 17.9797 16.7373 17.9289 16.6154C17.8781 16.4936 17.8037 16.383 17.71 16.29ZM2 8C2 6.81332 2.3519 5.65328 3.01119 4.66658C3.67047 3.67989 4.60755 2.91085 5.7039 2.45673C6.80026 2.0026 8.00666 1.88378 9.17055 2.11529C10.3344 2.3468 11.4035 2.91825 12.2426 3.75736C13.0818 4.59648 13.6532 5.66558 13.8847 6.82946C14.1162 7.99335 13.9974 9.19975 13.5433 10.2961C13.0892 11.3925 12.3201 12.3295 11.3334 12.9888C10.3467 13.6481 9.18669 14 8 14C6.4087 14 4.88258 13.3679 3.75736 12.2426C2.63214 11.1174 2 9.5913 2 8Z" />
</svg>
